<?xml version="1.0" encoding="UTF-8"?>
<!-- Generator: visioncortex VTracer 0.6.4 -->
<svg version="1.1" xmlns="http://www.w3.org/2000/svg" width="168" height="300">
<path d="M0 0 C55.44 0 110.88 0 168 0 C168 99 168 198 168 300 C112.56 300 57.12 300 0 300 C0 201 0 102 0 0 Z " fill="#FEFEFE" transform="translate(0,0)"/>
<path d="M0 0 C3.32961021 0.55493503 5.30091917 1.49496853 8 3.5 C9.56935594 6.63871188 9.35201103 9.03855822 9 12.5 C6.40783917 16.19186542 4.95850936 17.32883761 0.5 18.125 C-3.95850936 17.32883761 -5.40783917 16.19186542 -8 12.5 C-8.625 9 -8.625 9 -8 5.5 C-5.54597925 2.1076772 -4.16402963 0.69400494 0 0 Z " fill="#593F97" transform="translate(92,139.5)"/>
<path d="M0 0 C2.875 1.625 2.875 1.625 5 4 C5 5.98 5 7.96 5 10 C1.04 10 -2.92 10 -7 10 C-6.67 10.66 -6.34 11.32 -6 12 C-4.10466658 12.46523063 -4.10466658 12.46523063 -1.9375 12.625 C-0.638125 12.74875 0.66125 12.8725 2 13 C1.67 14.32 1.34 15.64 1 17 C-1.93010297 17.29797657 -4.14262846 17.50083081 -7 17 C-10.0625 14.4375 -10.0625 14.4375 -12 11 C-12.14971147 6.65836732 -11.72194213 4.80444981 -8.8125 1.5625 C-5.45611204 -0.30215998 -3.7822566 -0.6303761 0 0 Z " fill="#4E3193" transform="translate(130,140)"/>
<path d="M0 0 C2.4375 1 2.4375 1 4 2 C3.67 3.32 3.34 4.64 3 6 C-0.3 5.34 -3.6 4.68 -7 4 C-7 4.66 -7 5.32 -7 6 C-6.28972656 6.13277344 -5.57945313 6.26554688 -4.84765625 6.40234375 C-3.92855469 6.57894531 -3.00945313 6.75554687 -2.0625 6.9375 C-1.14597656 7.11152344 -0.22945312 7.28554687 0.71484375 7.46484375 C3 8 3 8 4 9 C4.25 11.9375 4.25 11.9375 4 15 C1.00261059 16.99825961 0.36652492 17.27550398 -3 17.25 C-4.0209375 17.25773437 -4.0209375 17.25773437 -5.0625 17.265625 C-7 17 -7 17 -10 15 C-10 14.01 -10 13.02 -10 12 C-7.03 12.33 -4.06 12.66 -1 13 C-0.67 12.34 -0.34 11.68 0 11 C-0.62648438 10.87882813 -1.25296875 10.75765625 -1.8984375 10.6328125 C-3.12433594 10.38144531 -3.12433594 10.38144531 -4.375 10.125 C-5.18710937 9.96257812 -5.99921875 9.80015625 -6.8359375 9.6328125 C-9 9 -9 9 -11 7 C-10.8125 4.5 -10.8125 4.5 -10 2 C-6.29873141 -0.46751239 -4.37776468 -0.30721156 0 0 Z " fill="#513594" transform="translate(59,140)"/>
<path d="M0 0 C0.99 0.66 1.98 1.32 3 2 C3 3.32 3 4.64 3 6 C2.36191406 5.91621094 1.72382812 5.83242187 1.06640625 5.74609375 C0.24011719 5.64425781 -0.58617188 5.54242188 -1.4375 5.4375 C-2.26121094 5.33308594 -3.08492187 5.22867188 -3.93359375 5.12109375 C-4.95646484 5.06115234 -4.95646484 5.06115234 -6 5 C-7.28322547 6.0595877 -7.28322547 6.0595877 -7.125 8.5 C-7.28322547 10.9404123 -7.28322547 10.9404123 -6 12 C-4.48071962 12.07179964 -2.95832518 12.08392007 -1.4375 12.0625 C-0.61121094 12.05347656 0.21507813 12.04445312 1.06640625 12.03515625 C1.70449219 12.02355469 2.34257813 12.01195312 3 12 C2.625 13.9375 2.625 13.9375 2 16 C-1.09173752 17.54586876 -3.59429552 17.29359521 -7 17 C-10.30748965 14.38882396 -11.81680509 12.37396185 -12.375 8.1875 C-12 5 -12 5 -9.9375 2.125 C-6.29837208 -0.50756062 -4.40184998 -0.57061018 0 0 Z " fill="#563C96" transform="translate(78,140)"/>
<path d="M0 0 C1.67542976 0.28604898 3.34385343 0.61781233 5 1 C6.125 4.75 6.125 4.75 5 7 C4.86301758 10.08210454 4.93997454 12.73588799 5.625 15.75 C5.74875 16.4925 5.8725 17.235 6 18 C5.34 18.66 4.68 19.32 4 20 C1.375 19.625 1.375 19.625 -1 19 C-0.90460937 18.24074219 -0.80921875 17.48148438 -0.7109375 16.69921875 C-0.60007813 15.70535156 -0.48921875 14.71148437 -0.375 13.6875 C-0.25898437 12.70136719 -0.14296875 11.71523437 -0.0234375 10.69921875 C0.25476995 7.77342584 0.25476995 7.77342584 -2 5 C-1.48275862 1.48275862 -1.48275862 1.48275862 0 0 Z " fill="#4BC2C7" transform="translate(37,139)"/>
<path d="M0 0 C3.61894036 0.27838003 5.36257892 1.10505863 8.25 3.25 C9.81935594 6.38871188 9.60201103 8.78855822 9.25 12.25 C7.0625 15.1875 7.0625 15.1875 4.25 17.25 C1.4375 17.5625 1.4375 17.5625 -0.75 17.25 C0.25 14.25 0.25 14.25 2.3125 12.875 C4.55563488 11.38056566 4.55563488 11.38056566 4.5 8.5625 C4.37625 7.4178125 4.37625 7.4178125 4.25 6.25 C3.115625 5.981875 1.98125 5.71375 0.8125 5.4375 C-0.363125 5.045625 -1.53875 4.65375 -2.75 4.25 C-3.08 3.26 -3.41 2.27 -3.75 1.25 C-2.75 0.25 -2.75 0.25 0 0 Z " fill="#553B96" transform="translate(91.75,139.75)"/>
<path d="M0 0 C0 1.32 0 2.64 0 4 C-1.134375 4.309375 -2.26875 4.61875 -3.4375 4.9375 C-6.78775099 5.62924531 -6.78775099 5.62924531 -8 7 C-8.23287008 8.68183948 -8.41264166 10.3712416 -8.5625 12.0625 C-8.68818359 13.44115234 -8.68818359 13.44115234 -8.81640625 14.84765625 C-8.87699219 15.55792969 -8.93757813 16.26820313 -9 17 C-9.99 17 -10.98 17 -12 17 C-12.77373974 6.21922626 -12.77373974 6.21922626 -9.9375 1.75 C-6.36554971 -0.37797038 -4.09055747 -0.40103505 0 0 Z " fill="#533794" transform="translate(116,140)"/>
<path d="M0 0 C2.5 0.25 2.5 0.25 4.5 2.25 C4.75 4.75 4.75 4.75 4.5 7.25 C2.5 9.25 2.5 9.25 0 9.5 C-2.5 9.25 -2.5 9.25 -4.5 7.25 C-4.75 4.75 -4.75 4.75 -4.5 2.25 C-2.5 0.25 -2.5 0.25 0 0 Z " fill="#FCFCFC" transform="translate(92.5,143.75)"/>
<path d="M0 0 C0.886875 0.4125 1.77375 0.825 2.6875 1.25 C3.0175 2.9 3.3475 4.55 3.6875 6.25 C1.0475 6.25 -1.5925 6.25 -4.3125 6.25 C-4.3125 5.59 -4.3125 4.93 -4.3125 4.25 C-5.3025 4.745 -5.3025 4.745 -6.3125 5.25 C-6.97022428 8.27934491 -6.97022428 8.27934491 -7.3125 11.25 C-7.9725 10.92 -8.6325 10.59 -9.3125 10.25 C-9.07488818 6.13139516 -8.84279173 3.87119889 -6.125 0.6875 C-3.3125 -0.75 -3.3125 -0.75 0 0 Z " fill="#593F97" transform="translate(127.3125,140.75)"/>
<path d="M0 0 C1.67542976 0.28604898 3.34385343 0.61781233 5 1 C6.125 4.75 6.125 4.75 5 7 C3.33388095 7.042721 1.66617115 7.04063832 0 7 C-1 6 -1 6 -1.125 3.5 C-1 1 -1 1 0 0 Z " fill="#44C1C6" transform="translate(37,130)"/>
<path d="M0 0 C3.96 0.99 3.96 0.99 8 2 C7.67 2.99 7.34 3.98 7 5 C3.26512223 4.5020163 1.18762365 4.12508244 -2 2 C-1.34 2 -0.68 2 0 2 C0 1.34 0 0.68 0 0 Z " fill="#E2E0EA" transform="translate(51,149)"/>
<path d="M0 0 C3.96 0 7.92 0 12 0 C9.09907498 1.93395001 8.10325263 2.30131941 4.8125 2.625 C3.554375 2.74875 2.29625 2.8725 1 3 C0.67 2.01 0.34 1.02 0 0 Z " fill="#D5D0E0" transform="translate(123,150)"/>
<path d="M0 0 C3.375 -0.1875 3.375 -0.1875 7 0 C7.66 0.99 8.32 1.98 9 3 C5.23375329 4.25541557 3.62811066 3.37061958 0 2 C0 1.34 0 0.68 0 0 Z " fill="#ECEAF1" transform="translate(52,144)"/>
<path d="M0 0 C2.475 0.99 2.475 0.99 5 2 C4.67 3.32 4.34 4.64 4 6 C1.36 5.34 -1.28 4.68 -4 4 C-2.68 3.67 -1.36 3.34 0 3 C0 2.01 0 1.02 0 0 Z " fill="#654D9E" transform="translate(58,140)"/>
<path d="M0 0 C-0.33 1.32 -0.66 2.64 -1 4 C-3.31 4.33 -5.62 4.66 -8 5 C-3.375 0 -3.375 0 0 0 Z " fill="#4C2F92" transform="translate(81,152)"/>
<path d="M0 0 C1.98 0 3.96 0 6 0 C6.33 0.99 6.66 1.98 7 3 C4.36 3 1.72 3 -1 3 C-0.67 2.01 -0.34 1.02 0 0 Z " fill="#DFDCE6" transform="translate(124,144)"/>
<path d="M0 0 C1.98 0 3.96 0 6 0 C6.33 0.99 6.66 1.98 7 3 C4.69 3 2.38 3 0 3 C0 2.01 0 1.02 0 0 Z " fill="#4A2D90" transform="translate(110,140)"/>
<path d="M0 0 C1.98 0 3.96 0 6 0 C5.67 1.32 5.34 2.64 5 4 C1.125 2.25 1.125 2.25 0 0 Z " fill="#5C4399" transform="translate(126,153)"/>
</svg>
